<svg width="63" height="63" viewBox="0 0 63 63" fill="none" xmlns="http://www.w3.org/2000/svg">
<path d="M6.72754 38.0624C10.3519 38.0624 13.29 35.1243 13.29 31.5C13.29 27.8756 10.3519 24.9375 6.72754 24.9375C3.1032 24.9375 0.165085 27.8756 0.165085 31.5C0.165085 35.1243 3.1032 38.0624 6.72754 38.0624Z" fill="white"/>
<path d="M50.0321 62.9999C53.6565 62.9999 56.5946 60.0618 56.5946 56.4375C56.5946 52.8131 53.6565 49.875 50.0321 49.875C46.4078 49.875 43.4697 52.8131 43.4697 56.4375C43.4697 60.0618 46.4078 62.9999 50.0321 62.9999Z" fill="white"/>
<path d="M50.0321 13.1249C53.6565 13.1249 56.5946 10.1868 56.5946 6.56246C56.5946 2.93811 53.6565 0 50.0321 0C46.4078 0 43.4697 2.93811 43.4697 6.56246C43.4697 10.1868 46.4078 13.1249 50.0321 13.1249Z" fill="white"/>
<path d="M32.2504 18.1701C32.5437 18.6781 33.1384 18.93 33.7073 18.7869C40.5886 17.015 47.6226 21.0746 49.5308 27.9193C49.6905 28.4845 50.2062 28.8746 50.7934 28.8748H61.5191C62.244 28.8751 62.8319 28.2878 62.8324 27.563C62.8324 27.4933 62.8268 27.4237 62.8159 27.3549C62.0569 22.5805 59.9909 18.1095 56.8466 14.4373C56.413 13.937 55.6748 13.8379 55.1246 14.2063C53.62 15.2131 51.8503 15.7503 50.0399 15.7498C45.0221 15.732 40.9395 11.7054 40.8524 6.68831C40.8428 6.02447 40.3392 5.47236 39.679 5.4021C35.5634 4.97094 31.404 5.51592 27.5384 6.99285C26.8615 7.25223 26.5231 8.01131 26.7825 8.68819C26.8072 8.75267 26.837 8.81517 26.8716 8.87497L32.2504 18.1701Z" fill="white"/>
<path d="M61.5217 34.125H50.796C50.2088 34.1251 49.6931 34.5154 49.5334 35.0805C47.6275 41.927 40.5916 45.9877 33.7099 44.2129C33.141 44.0698 32.5463 44.3216 32.2531 44.8297L26.8876 54.1248C26.525 54.7525 26.7398 55.5552 27.3675 55.9178C27.4273 55.9524 27.4898 55.9822 27.5543 56.0069C31.416 57.4991 35.579 58.0446 39.695 57.5977C40.3551 57.5274 40.8587 56.9752 40.8683 56.3115C40.9264 51.2493 45.0771 47.1926 50.1393 47.2507C51.9155 47.271 53.6475 47.8069 55.1247 48.7934C55.6773 49.1614 56.4175 49.0588 56.8493 48.5546C59.9921 44.8846 62.0581 40.4165 62.8185 35.6449C62.9331 34.9291 62.4457 34.256 61.7299 34.1415C61.661 34.1305 61.5914 34.125 61.5217 34.125Z" fill="white"/>
<path d="M27.5069 40.6377C22.5538 35.5518 22.5538 27.4457 27.5069 22.3598C27.9177 21.9379 27.997 21.294 27.7012 20.7848L22.3436 11.5107C22.1512 11.1771 21.8221 10.9448 21.4433 10.8754C21.067 10.8105 20.6807 10.9056 20.3776 11.1378C16.5656 14.2371 13.6991 18.3431 12.1036 22.9897C11.925 23.5079 12.0872 24.0825 12.5105 24.4308C16.4154 27.5447 17.0567 33.2344 13.9429 37.1392C13.5206 37.6688 13.0401 38.1493 12.5105 38.5716C12.0872 38.92 11.925 39.4946 12.1036 40.0128C13.7001 44.6552 16.5656 48.7573 20.3749 51.8542C20.6093 52.0448 20.9023 52.1485 21.2044 52.1481C21.2836 52.1476 21.3626 52.1406 21.4406 52.1271C21.8193 52.0577 22.1486 51.8254 22.3409 51.4918L27.6985 42.2125C27.9952 41.7042 27.9168 41.0604 27.5069 40.6377Z" fill="white"/>
</svg>
