<svg width="125" height="36" viewBox="0 0 125 36" fill="none" xmlns="http://www.w3.org/2000/svg">
<path d="M1.40597 36C1.22477 36 1.0421 35.965 0.868077 35.8929C0.342562 35.6752 0 35.1624 0 34.5936L0.000843748 18.1689C-0.0433827 13.3461 1.81139 8.79235 5.22421 5.34655C8.63914 1.89879 13.1763 0 18 0C22.8595 0 27.4037 1.88585 30.7953 5.31013C34.1977 8.74531 36.0458 13.3147 35.9991 18.1765C35.9532 22.9643 34.0493 27.4499 30.6383 30.8072C27.2358 34.156 22.7242 35.9999 17.9339 35.9999C17.9282 35.9999 17.9222 35.9999 17.9165 35.9999C15.0829 36 12.3777 35.3645 9.87629 34.1109C7.48623 32.9132 4.59252 33.3961 2.67567 35.3131L2.4006 35.5881C2.13159 35.8571 1.77187 35.9999 1.40597 36ZM7.12025 30.6457C8.48586 30.6457 9.85976 30.9567 11.1364 31.5965C13.2429 32.6522 15.5245 33.1874 17.9178 33.1874H17.9324C26.2658 33.1881 33.107 26.4433 33.1867 18.1495C33.2261 14.0441 31.6671 10.1872 28.7969 7.28935C25.9376 4.4024 22.1032 2.81249 18 2.81249C13.9326 2.81249 10.1052 4.41534 7.22256 7.32571C4.3401 10.236 2.77417 14.0799 2.81327 18.1495C2.81334 18.1539 2.81334 18.1585 2.81334 18.163L2.81264 31.738C4.1452 31.0175 5.62766 30.6457 7.12025 30.6457Z" fill="white"/>
<path d="M11.0608 24.9628C10.3048 24.9628 9.5461 24.7229 8.90991 24.2347C7.45304 23.1166 7.09142 21.1009 8.06876 19.5461L11.8462 13.5369C12.4134 12.6277 13.3454 11.9926 14.4005 11.7981C15.4519 11.6043 16.5436 11.8637 17.3963 12.5097L20.2598 14.6593L22.5114 12.4116C23.7634 11.1616 25.7578 11.0418 27.1505 12.1329C28.5689 13.2442 28.9156 15.2325 27.957 16.7581L24.1563 22.8068C23.5888 23.7162 22.6568 24.3513 21.6017 24.5458C20.5504 24.7393 19.4586 24.48 18.6059 23.8341C18.604 23.8326 18.6019 23.831 18.6 23.8296L15.8034 21.6875L13.5666 23.9276C12.8826 24.6129 11.9737 24.9628 11.0608 24.9628ZM10.6223 22.0035C10.91 22.2243 11.3202 22.1973 11.5764 21.9406L14.6845 18.8278C15.1832 18.3284 15.9745 18.2759 16.5347 18.705L20.307 21.5945C20.5343 21.7655 20.8127 21.8314 21.092 21.78C21.3761 21.7276 21.6178 21.5622 21.7726 21.3143L25.5756 15.2619C25.7652 14.9601 25.6966 14.5668 25.416 14.3469C25.1405 14.1312 24.7459 14.1549 24.4984 14.4021L21.384 17.5111C20.8889 18.0054 20.1057 18.0604 19.5462 17.6406L15.7028 14.7554C15.4701 14.579 15.1902 14.5127 14.9102 14.5641C14.6261 14.6164 14.3844 14.7818 14.2296 15.0298L10.4498 21.0429C10.2496 21.3615 10.3238 21.7745 10.6223 22.0035Z" fill="white"/>
<path d="M39.26 31H46.596V29.46H40.982V26.828H45.896V25.288H40.982V22.74H46.526V21.2H39.26V31ZM52.0689 31.14C54.1269 31.14 55.5689 30.048 55.5689 28.214V28.186C55.5689 26.562 54.5049 25.82 52.4329 25.316C50.5429 24.868 50.0949 24.532 50.0949 23.776V23.748C50.0949 23.104 50.6829 22.586 51.6909 22.586C52.5869 22.586 53.4689 22.936 54.3509 23.594L55.2749 22.292C54.2809 21.494 53.1469 21.06 51.7189 21.06C49.7729 21.06 48.3729 22.222 48.3729 23.902V23.93C48.3729 25.736 49.5489 26.352 51.6349 26.856C53.4549 27.276 53.8469 27.654 53.8469 28.354V28.382C53.8469 29.11 53.1749 29.614 52.1109 29.614C50.9069 29.614 49.9549 29.152 49.0169 28.34L47.9809 29.572C49.1569 30.622 50.5709 31.14 52.0689 31.14ZM62.144 31.168C63.978 31.168 65.098 30.496 66.12 29.432L65.014 28.312C64.174 29.096 63.404 29.572 62.2 29.572C60.324 29.572 58.966 28.018 58.966 26.1V26.072C58.966 24.154 60.338 22.614 62.2 22.614C63.32 22.614 64.16 23.104 64.944 23.832L66.05 22.558C65.112 21.662 64.02 21.032 62.214 21.032C59.246 21.032 57.16 23.314 57.16 26.1V26.128C57.16 28.942 59.288 31.168 62.144 31.168ZM72.3325 31.168C75.3425 31.168 77.4705 28.858 77.4705 26.1V26.072C77.4705 23.314 75.3705 21.032 72.3605 21.032C69.3505 21.032 67.2225 23.342 67.2225 26.1V26.128C67.2225 28.886 69.3225 31.168 72.3325 31.168ZM72.3605 29.572C70.4145 29.572 69.0285 28.004 69.0285 26.1V26.072C69.0285 24.168 70.3865 22.614 72.3325 22.614C74.2785 22.614 75.6645 24.196 75.6645 26.1V26.128C75.6645 28.032 74.3065 29.572 72.3605 29.572ZM79.551 31H81.273V27.584H83.429L85.837 31H87.881L85.235 27.29C86.593 26.898 87.559 25.932 87.559 24.322V24.294C87.559 23.44 87.265 22.712 86.747 22.18C86.117 21.564 85.151 21.2 83.919 21.2H79.551V31ZM81.273 26.058V22.768H83.779C85.053 22.768 85.809 23.342 85.809 24.392V24.42C85.809 25.414 85.025 26.058 83.793 26.058H81.273ZM92.0352 31H93.7712V22.796H96.8792V21.2H88.9272V22.796H92.0352V31ZM101.93 31.14C103.988 31.14 105.43 30.048 105.43 28.214V28.186C105.43 26.562 104.366 25.82 102.294 25.316C100.404 24.868 99.9562 24.532 99.9562 23.776V23.748C99.9562 23.104 100.544 22.586 101.552 22.586C102.448 22.586 103.33 22.936 104.212 23.594L105.136 22.292C104.142 21.494 103.008 21.06 101.58 21.06C99.6342 21.06 98.2342 22.222 98.2342 23.902V23.93C98.2342 25.736 99.4102 26.352 101.496 26.856C103.316 27.276 103.708 27.654 103.708 28.354V28.382C103.708 29.11 103.036 29.614 101.972 29.614C100.768 29.614 99.8162 29.152 98.8782 28.34L97.8422 29.572C99.0182 30.622 100.432 31.14 101.93 31.14Z" fill="white"/>
<path d="M39.26 31H46.596V29.46H40.982V26.828H45.896V25.288H40.982V22.74H46.526V21.2H39.26V31ZM52.0689 31.14C54.1269 31.14 55.5689 30.048 55.5689 28.214V28.186C55.5689 26.562 54.5049 25.82 52.4329 25.316C50.5429 24.868 50.0949 24.532 50.0949 23.776V23.748C50.0949 23.104 50.6829 22.586 51.6909 22.586C52.5869 22.586 53.4689 22.936 54.3509 23.594L55.2749 22.292C54.2809 21.494 53.1469 21.06 51.7189 21.06C49.7729 21.06 48.3729 22.222 48.3729 23.902V23.93C48.3729 25.736 49.5489 26.352 51.6349 26.856C53.4549 27.276 53.8469 27.654 53.8469 28.354V28.382C53.8469 29.11 53.1749 29.614 52.1109 29.614C50.9069 29.614 49.9549 29.152 49.0169 28.34L47.9809 29.572C49.1569 30.622 50.5709 31.14 52.0689 31.14ZM62.144 31.168C63.978 31.168 65.098 30.496 66.12 29.432L65.014 28.312C64.174 29.096 63.404 29.572 62.2 29.572C60.324 29.572 58.966 28.018 58.966 26.1V26.072C58.966 24.154 60.338 22.614 62.2 22.614C63.32 22.614 64.16 23.104 64.944 23.832L66.05 22.558C65.112 21.662 64.02 21.032 62.214 21.032C59.246 21.032 57.16 23.314 57.16 26.1V26.128C57.16 28.942 59.288 31.168 62.144 31.168ZM72.3325 31.168C75.3425 31.168 77.4705 28.858 77.4705 26.1V26.072C77.4705 23.314 75.3705 21.032 72.3605 21.032C69.3505 21.032 67.2225 23.342 67.2225 26.1V26.128C67.2225 28.886 69.3225 31.168 72.3325 31.168ZM72.3605 29.572C70.4145 29.572 69.0285 28.004 69.0285 26.1V26.072C69.0285 24.168 70.3865 22.614 72.3325 22.614C74.2785 22.614 75.6645 24.196 75.6645 26.1V26.128C75.6645 28.032 74.3065 29.572 72.3605 29.572ZM79.551 31H81.273V27.584H83.429L85.837 31H87.881L85.235 27.29C86.593 26.898 87.559 25.932 87.559 24.322V24.294C87.559 23.44 87.265 22.712 86.747 22.18C86.117 21.564 85.151 21.2 83.919 21.2H79.551V31ZM81.273 26.058V22.768H83.779C85.053 22.768 85.809 23.342 85.809 24.392V24.42C85.809 25.414 85.025 26.058 83.793 26.058H81.273ZM92.0352 31H93.7712V22.796H96.8792V21.2H88.9272V22.796H92.0352V31ZM101.93 31.14C103.988 31.14 105.43 30.048 105.43 28.214V28.186C105.43 26.562 104.366 25.82 102.294 25.316C100.404 24.868 99.9562 24.532 99.9562 23.776V23.748C99.9562 23.104 100.544 22.586 101.552 22.586C102.448 22.586 103.33 22.936 104.212 23.594L105.136 22.292C104.142 21.494 103.008 21.06 101.58 21.06C99.6342 21.06 98.2342 22.222 98.2342 23.902V23.93C98.2342 25.736 99.4102 26.352 101.496 26.856C103.316 27.276 103.708 27.654 103.708 28.354V28.382C103.708 29.11 103.036 29.614 101.972 29.614C100.768 29.614 99.8162 29.152 98.8782 28.34L97.8422 29.572C99.0182 30.622 100.432 31.14 101.93 31.14Z" fill="white"/>
<path d="M39.26 31H46.596V29.46H40.982V26.828H45.896V25.288H40.982V22.74H46.526V21.2H39.26V31ZM52.0689 31.14C54.1269 31.14 55.5689 30.048 55.5689 28.214V28.186C55.5689 26.562 54.5049 25.82 52.4329 25.316C50.5429 24.868 50.0949 24.532 50.0949 23.776V23.748C50.0949 23.104 50.6829 22.586 51.6909 22.586C52.5869 22.586 53.4689 22.936 54.3509 23.594L55.2749 22.292C54.2809 21.494 53.1469 21.06 51.7189 21.06C49.7729 21.06 48.3729 22.222 48.3729 23.902V23.93C48.3729 25.736 49.5489 26.352 51.6349 26.856C53.4549 27.276 53.8469 27.654 53.8469 28.354V28.382C53.8469 29.11 53.1749 29.614 52.1109 29.614C50.9069 29.614 49.9549 29.152 49.0169 28.34L47.9809 29.572C49.1569 30.622 50.5709 31.14 52.0689 31.14ZM62.144 31.168C63.978 31.168 65.098 30.496 66.12 29.432L65.014 28.312C64.174 29.096 63.404 29.572 62.2 29.572C60.324 29.572 58.966 28.018 58.966 26.1V26.072C58.966 24.154 60.338 22.614 62.2 22.614C63.32 22.614 64.16 23.104 64.944 23.832L66.05 22.558C65.112 21.662 64.02 21.032 62.214 21.032C59.246 21.032 57.16 23.314 57.16 26.1V26.128C57.16 28.942 59.288 31.168 62.144 31.168ZM72.3325 31.168C75.3425 31.168 77.4705 28.858 77.4705 26.1V26.072C77.4705 23.314 75.3705 21.032 72.3605 21.032C69.3505 21.032 67.2225 23.342 67.2225 26.1V26.128C67.2225 28.886 69.3225 31.168 72.3325 31.168ZM72.3605 29.572C70.4145 29.572 69.0285 28.004 69.0285 26.1V26.072C69.0285 24.168 70.3865 22.614 72.3325 22.614C74.2785 22.614 75.6645 24.196 75.6645 26.1V26.128C75.6645 28.032 74.3065 29.572 72.3605 29.572ZM79.551 31H81.273V27.584H83.429L85.837 31H87.881L85.235 27.29C86.593 26.898 87.559 25.932 87.559 24.322V24.294C87.559 23.44 87.265 22.712 86.747 22.18C86.117 21.564 85.151 21.2 83.919 21.2H79.551V31ZM81.273 26.058V22.768H83.779C85.053 22.768 85.809 23.342 85.809 24.392V24.42C85.809 25.414 85.025 26.058 83.793 26.058H81.273ZM92.0352 31H93.7712V22.796H96.8792V21.2H88.9272V22.796H92.0352V31ZM101.93 31.14C103.988 31.14 105.43 30.048 105.43 28.214V28.186C105.43 26.562 104.366 25.82 102.294 25.316C100.404 24.868 99.9562 24.532 99.9562 23.776V23.748C99.9562 23.104 100.544 22.586 101.552 22.586C102.448 22.586 103.33 22.936 104.212 23.594L105.136 22.292C104.142 21.494 103.008 21.06 101.58 21.06C99.6342 21.06 98.2342 22.222 98.2342 23.902V23.93C98.2342 25.736 99.4102 26.352 101.496 26.856C103.316 27.276 103.708 27.654 103.708 28.354V28.382C103.708 29.11 103.036 29.614 101.972 29.614C100.768 29.614 99.8162 29.152 98.8782 28.34L97.8422 29.572C99.0182 30.622 100.432 31.14 101.93 31.14Z" fill="white"/>
<path d="M39.26 31H46.596V29.46H40.982V26.828H45.896V25.288H40.982V22.74H46.526V21.2H39.26V31ZM52.0689 31.14C54.1269 31.14 55.5689 30.048 55.5689 28.214V28.186C55.5689 26.562 54.5049 25.82 52.4329 25.316C50.5429 24.868 50.0949 24.532 50.0949 23.776V23.748C50.0949 23.104 50.6829 22.586 51.6909 22.586C52.5869 22.586 53.4689 22.936 54.3509 23.594L55.2749 22.292C54.2809 21.494 53.1469 21.06 51.7189 21.06C49.7729 21.06 48.3729 22.222 48.3729 23.902V23.93C48.3729 25.736 49.5489 26.352 51.6349 26.856C53.4549 27.276 53.8469 27.654 53.8469 28.354V28.382C53.8469 29.11 53.1749 29.614 52.1109 29.614C50.9069 29.614 49.9549 29.152 49.0169 28.34L47.9809 29.572C49.1569 30.622 50.5709 31.14 52.0689 31.14ZM62.144 31.168C63.978 31.168 65.098 30.496 66.12 29.432L65.014 28.312C64.174 29.096 63.404 29.572 62.2 29.572C60.324 29.572 58.966 28.018 58.966 26.1V26.072C58.966 24.154 60.338 22.614 62.2 22.614C63.32 22.614 64.16 23.104 64.944 23.832L66.05 22.558C65.112 21.662 64.02 21.032 62.214 21.032C59.246 21.032 57.16 23.314 57.16 26.1V26.128C57.16 28.942 59.288 31.168 62.144 31.168ZM72.3325 31.168C75.3425 31.168 77.4705 28.858 77.4705 26.1V26.072C77.4705 23.314 75.3705 21.032 72.3605 21.032C69.3505 21.032 67.2225 23.342 67.2225 26.1V26.128C67.2225 28.886 69.3225 31.168 72.3325 31.168ZM72.3605 29.572C70.4145 29.572 69.0285 28.004 69.0285 26.1V26.072C69.0285 24.168 70.3865 22.614 72.3325 22.614C74.2785 22.614 75.6645 24.196 75.6645 26.1V26.128C75.6645 28.032 74.3065 29.572 72.3605 29.572ZM79.551 31H81.273V27.584H83.429L85.837 31H87.881L85.235 27.29C86.593 26.898 87.559 25.932 87.559 24.322V24.294C87.559 23.44 87.265 22.712 86.747 22.18C86.117 21.564 85.151 21.2 83.919 21.2H79.551V31ZM81.273 26.058V22.768H83.779C85.053 22.768 85.809 23.342 85.809 24.392V24.42C85.809 25.414 85.025 26.058 83.793 26.058H81.273ZM92.0352 31H93.7712V22.796H96.8792V21.2H88.9272V22.796H92.0352V31ZM101.93 31.14C103.988 31.14 105.43 30.048 105.43 28.214V28.186C105.43 26.562 104.366 25.82 102.294 25.316C100.404 24.868 99.9562 24.532 99.9562 23.776V23.748C99.9562 23.104 100.544 22.586 101.552 22.586C102.448 22.586 103.33 22.936 104.212 23.594L105.136 22.292C104.142 21.494 103.008 21.06 101.58 21.06C99.6342 21.06 98.2342 22.222 98.2342 23.902V23.93C98.2342 25.736 99.4102 26.352 101.496 26.856C103.316 27.276 103.708 27.654 103.708 28.354V28.382C103.708 29.11 103.036 29.614 101.972 29.614C100.768 29.614 99.8162 29.152 98.8782 28.34L97.8422 29.572C99.0182 30.622 100.432 31.14 101.93 31.14Z" fill="white"/>
<path d="M39.26 16H42.914C45.994 16 48.122 13.858 48.122 11.1V11.072C48.122 8.314 45.994 6.2 42.914 6.2H39.26V16ZM42.914 7.768C44.972 7.768 46.316 9.182 46.316 11.1V11.128C46.316 13.046 44.972 14.432 42.914 14.432H40.982V7.768H42.914ZM50.2112 16H57.5472V14.46H51.9332V11.828H56.8472V10.288H51.9332V7.74H57.4772V6.2H50.2112V16ZM63.0201 16.14C65.0781 16.14 66.5201 15.048 66.5201 13.214V13.186C66.5201 11.562 65.4561 10.82 63.3841 10.316C61.4941 9.868 61.0461 9.532 61.0461 8.776V8.748C61.0461 8.104 61.6341 7.586 62.6421 7.586C63.5381 7.586 64.4201 7.936 65.3021 8.594L66.2261 7.292C65.2321 6.494 64.0981 6.06 62.6701 6.06C60.7241 6.06 59.3241 7.222 59.3241 8.902V8.93C59.3241 10.736 60.5001 11.352 62.5861 11.856C64.4061 12.276 64.7981 12.654 64.7981 13.354V13.382C64.7981 14.11 64.1261 14.614 63.0621 14.614C61.8581 14.614 60.9061 14.152 59.9681 13.34L58.9321 14.572C60.1081 15.622 61.5221 16.14 63.0201 16.14ZM68.5452 16H70.2672V12.85H72.2132C74.3692 12.85 76.1332 11.702 76.1332 9.504V9.476C76.1332 7.502 74.7052 6.2 72.4092 6.2H68.5452V16ZM70.2672 11.296V7.768H72.2692C73.5572 7.768 74.3832 8.37 74.3832 9.518V9.546C74.3832 10.568 73.5712 11.296 72.2692 11.296H70.2672ZM77.8967 16H85.2327V14.46H79.6187V11.828H84.5327V10.288H79.6187V7.74H85.1627V6.2H77.8967V16ZM87.2756 16H88.9976V12.584H91.1536L93.5616 16H95.6056L92.9596 12.29C94.3176 11.898 95.2836 10.932 95.2836 9.322V9.294C95.2836 8.44 94.9896 7.712 94.4716 7.18C93.8416 6.564 92.8756 6.2 91.6436 6.2H87.2756V16ZM88.9976 11.058V7.768H91.5036C92.7776 7.768 93.5336 8.342 93.5336 9.392V9.42C93.5336 10.414 92.7496 11.058 91.5176 11.058H88.9976ZM96.5528 16H98.3168L99.3248 13.634H103.959L104.953 16H106.773L102.461 6.13H100.865L96.5528 16ZM99.9548 12.108L101.635 8.188L103.329 12.108H99.9548ZM109.604 16H111.34V7.796H114.448V6.2H106.496V7.796H109.604V16ZM116.274 16H123.61V14.46H117.996V11.828H122.91V10.288H117.996V7.74H123.54V6.2H116.274V16Z" fill="white"/>
<path d="M39.26 16H42.914C45.994 16 48.122 13.858 48.122 11.1V11.072C48.122 8.314 45.994 6.2 42.914 6.2H39.26V16ZM42.914 7.768C44.972 7.768 46.316 9.182 46.316 11.1V11.128C46.316 13.046 44.972 14.432 42.914 14.432H40.982V7.768H42.914ZM50.2112 16H57.5472V14.46H51.9332V11.828H56.8472V10.288H51.9332V7.74H57.4772V6.2H50.2112V16ZM63.0201 16.14C65.0781 16.14 66.5201 15.048 66.5201 13.214V13.186C66.5201 11.562 65.4561 10.82 63.3841 10.316C61.4941 9.868 61.0461 9.532 61.0461 8.776V8.748C61.0461 8.104 61.6341 7.586 62.6421 7.586C63.5381 7.586 64.4201 7.936 65.3021 8.594L66.2261 7.292C65.2321 6.494 64.0981 6.06 62.6701 6.06C60.7241 6.06 59.3241 7.222 59.3241 8.902V8.93C59.3241 10.736 60.5001 11.352 62.5861 11.856C64.4061 12.276 64.7981 12.654 64.7981 13.354V13.382C64.7981 14.11 64.1261 14.614 63.0621 14.614C61.8581 14.614 60.9061 14.152 59.9681 13.34L58.9321 14.572C60.1081 15.622 61.5221 16.14 63.0201 16.14ZM68.5452 16H70.2672V12.85H72.2132C74.3692 12.85 76.1332 11.702 76.1332 9.504V9.476C76.1332 7.502 74.7052 6.2 72.4092 6.2H68.5452V16ZM70.2672 11.296V7.768H72.2692C73.5572 7.768 74.3832 8.37 74.3832 9.518V9.546C74.3832 10.568 73.5712 11.296 72.2692 11.296H70.2672ZM77.8967 16H85.2327V14.46H79.6187V11.828H84.5327V10.288H79.6187V7.74H85.1627V6.2H77.8967V16ZM87.2756 16H88.9976V12.584H91.1536L93.5616 16H95.6056L92.9596 12.29C94.3176 11.898 95.2836 10.932 95.2836 9.322V9.294C95.2836 8.44 94.9896 7.712 94.4716 7.18C93.8416 6.564 92.8756 6.2 91.6436 6.2H87.2756V16ZM88.9976 11.058V7.768H91.5036C92.7776 7.768 93.5336 8.342 93.5336 9.392V9.42C93.5336 10.414 92.7496 11.058 91.5176 11.058H88.9976ZM96.5528 16H98.3168L99.3248 13.634H103.959L104.953 16H106.773L102.461 6.13H100.865L96.5528 16ZM99.9548 12.108L101.635 8.188L103.329 12.108H99.9548ZM109.604 16H111.34V7.796H114.448V6.2H106.496V7.796H109.604V16ZM116.274 16H123.61V14.46H117.996V11.828H122.91V10.288H117.996V7.74H123.54V6.2H116.274V16Z" fill="white"/>
<path d="M39.26 16H42.914C45.994 16 48.122 13.858 48.122 11.1V11.072C48.122 8.314 45.994 6.2 42.914 6.2H39.26V16ZM42.914 7.768C44.972 7.768 46.316 9.182 46.316 11.1V11.128C46.316 13.046 44.972 14.432 42.914 14.432H40.982V7.768H42.914ZM50.2112 16H57.5472V14.46H51.9332V11.828H56.8472V10.288H51.9332V7.74H57.4772V6.2H50.2112V16ZM63.0201 16.14C65.0781 16.14 66.5201 15.048 66.5201 13.214V13.186C66.5201 11.562 65.4561 10.82 63.3841 10.316C61.4941 9.868 61.0461 9.532 61.0461 8.776V8.748C61.0461 8.104 61.6341 7.586 62.6421 7.586C63.5381 7.586 64.4201 7.936 65.3021 8.594L66.2261 7.292C65.2321 6.494 64.0981 6.06 62.6701 6.06C60.7241 6.06 59.3241 7.222 59.3241 8.902V8.93C59.3241 10.736 60.5001 11.352 62.5861 11.856C64.4061 12.276 64.7981 12.654 64.7981 13.354V13.382C64.7981 14.11 64.1261 14.614 63.0621 14.614C61.8581 14.614 60.9061 14.152 59.9681 13.34L58.9321 14.572C60.1081 15.622 61.5221 16.14 63.0201 16.14ZM68.5452 16H70.2672V12.85H72.2132C74.3692 12.85 76.1332 11.702 76.1332 9.504V9.476C76.1332 7.502 74.7052 6.2 72.4092 6.2H68.5452V16ZM70.2672 11.296V7.768H72.2692C73.5572 7.768 74.3832 8.37 74.3832 9.518V9.546C74.3832 10.568 73.5712 11.296 72.2692 11.296H70.2672ZM77.8967 16H85.2327V14.46H79.6187V11.828H84.5327V10.288H79.6187V7.74H85.1627V6.2H77.8967V16ZM87.2756 16H88.9976V12.584H91.1536L93.5616 16H95.6056L92.9596 12.29C94.3176 11.898 95.2836 10.932 95.2836 9.322V9.294C95.2836 8.44 94.9896 7.712 94.4716 7.18C93.8416 6.564 92.8756 6.2 91.6436 6.2H87.2756V16ZM88.9976 11.058V7.768H91.5036C92.7776 7.768 93.5336 8.342 93.5336 9.392V9.42C93.5336 10.414 92.7496 11.058 91.5176 11.058H88.9976ZM96.5528 16H98.3168L99.3248 13.634H103.959L104.953 16H106.773L102.461 6.13H100.865L96.5528 16ZM99.9548 12.108L101.635 8.188L103.329 12.108H99.9548ZM109.604 16H111.34V7.796H114.448V6.2H106.496V7.796H109.604V16ZM116.274 16H123.61V14.46H117.996V11.828H122.91V10.288H117.996V7.74H123.54V6.2H116.274V16Z" fill="white"/>
<path d="M39.26 16H42.914C45.994 16 48.122 13.858 48.122 11.1V11.072C48.122 8.314 45.994 6.2 42.914 6.2H39.26V16ZM42.914 7.768C44.972 7.768 46.316 9.182 46.316 11.1V11.128C46.316 13.046 44.972 14.432 42.914 14.432H40.982V7.768H42.914ZM50.2112 16H57.5472V14.46H51.9332V11.828H56.8472V10.288H51.9332V7.74H57.4772V6.2H50.2112V16ZM63.0201 16.14C65.0781 16.14 66.5201 15.048 66.5201 13.214V13.186C66.5201 11.562 65.4561 10.82 63.3841 10.316C61.4941 9.868 61.0461 9.532 61.0461 8.776V8.748C61.0461 8.104 61.6341 7.586 62.6421 7.586C63.5381 7.586 64.4201 7.936 65.3021 8.594L66.2261 7.292C65.2321 6.494 64.0981 6.06 62.6701 6.06C60.7241 6.06 59.3241 7.222 59.3241 8.902V8.93C59.3241 10.736 60.5001 11.352 62.5861 11.856C64.4061 12.276 64.7981 12.654 64.7981 13.354V13.382C64.7981 14.11 64.1261 14.614 63.0621 14.614C61.8581 14.614 60.9061 14.152 59.9681 13.34L58.9321 14.572C60.1081 15.622 61.5221 16.14 63.0201 16.14ZM68.5452 16H70.2672V12.85H72.2132C74.3692 12.85 76.1332 11.702 76.1332 9.504V9.476C76.1332 7.502 74.7052 6.2 72.4092 6.2H68.5452V16ZM70.2672 11.296V7.768H72.2692C73.5572 7.768 74.3832 8.37 74.3832 9.518V9.546C74.3832 10.568 73.5712 11.296 72.2692 11.296H70.2672ZM77.8967 16H85.2327V14.46H79.6187V11.828H84.5327V10.288H79.6187V7.74H85.1627V6.2H77.8967V16ZM87.2756 16H88.9976V12.584H91.1536L93.5616 16H95.6056L92.9596 12.29C94.3176 11.898 95.2836 10.932 95.2836 9.322V9.294C95.2836 8.44 94.9896 7.712 94.4716 7.18C93.8416 6.564 92.8756 6.2 91.6436 6.2H87.2756V16ZM88.9976 11.058V7.768H91.5036C92.7776 7.768 93.5336 8.342 93.5336 9.392V9.42C93.5336 10.414 92.7496 11.058 91.5176 11.058H88.9976ZM96.5528 16H98.3168L99.3248 13.634H103.959L104.953 16H106.773L102.461 6.13H100.865L96.5528 16ZM99.9548 12.108L101.635 8.188L103.329 12.108H99.9548ZM109.604 16H111.34V7.796H114.448V6.2H106.496V7.796H109.604V16ZM116.274 16H123.61V14.46H117.996V11.828H122.91V10.288H117.996V7.74H123.54V6.2H116.274V16Z" fill="white"/>
</svg>
