<svg width="101" height="101" viewBox="0 0 101 101" fill="none" xmlns="http://www.w3.org/2000/svg">
<ellipse cx="50.5" cy="50.5" rx="50.5" ry="50.5" fill="#FEC23E"/>
<path fill-rule="evenodd" clip-rule="evenodd" d="M22.813 62.8211C22.813 59.7429 25.3084 57.2476 28.3866 57.2476C31.4634 57.251 33.9568 59.7444 33.9602 62.8211C33.9602 65.8994 31.4649 68.3947 28.3866 68.3947C25.3084 68.3947 22.813 65.8994 22.813 62.8211ZM24.3227 62.8212C24.3227 65.0658 26.1421 66.8852 28.3866 66.8852C30.63 66.8825 32.4479 65.0646 32.4506 62.8212C32.4506 60.5767 30.6312 58.7573 28.3866 58.7573C26.1421 58.7573 24.3227 60.5767 24.3227 62.8212Z" fill="white"/>
<path d="M28.3866 61.228C27.5072 61.228 26.7942 61.941 26.7942 62.8205C26.7942 63.7 27.5072 64.4129 28.3866 64.4129C29.2661 64.4129 29.9791 63.7 29.9791 62.8205C29.978 61.9416 29.2657 61.2293 28.3866 61.228Z" fill="white"/>
<path d="M70.5866 61.228C69.7071 61.228 68.9941 61.941 68.9941 62.8205C68.9941 63.7 69.7071 64.4129 70.5866 64.4129C71.4661 64.4129 72.179 63.7 72.179 62.8205C72.1778 61.9416 71.4655 61.2293 70.5866 61.228Z" fill="white"/>
<path fill-rule="evenodd" clip-rule="evenodd" d="M65.0131 62.821C65.0132 59.7428 67.5085 57.2474 70.5868 57.2476C73.6635 57.2511 76.1568 59.7445 76.1602 62.8211V62.8213C76.1601 65.8995 73.6647 68.3949 70.5865 68.3947C67.5083 68.3946 65.0129 65.8992 65.0131 62.821ZM66.5228 62.8212C66.5228 65.0658 68.3422 66.8852 70.5868 66.8852C72.8301 66.8825 74.6479 65.0646 74.6508 62.8212C74.6508 60.5767 72.8313 58.7573 70.5868 58.7573C68.3422 58.7573 66.5228 60.5767 66.5228 62.8212Z" fill="white"/>
<path fill-rule="evenodd" clip-rule="evenodd" d="M81.131 47.0757C81.433 47.4145 81.6016 47.8507 81.6059 48.3037L81.7336 59.3006C81.7413 60.3488 80.9014 61.2083 79.8495 61.2286H78.2891C77.6949 58.0176 75.1732 55.5051 71.9504 54.913C67.6582 54.1246 63.5371 56.952 62.7457 61.2286H36.2404C35.6458 58.0182 33.1247 55.5062 29.9026 54.9139C25.6105 54.125 21.4891 56.9522 20.6972 61.2286H19.9574C18.9014 61.21 18.0509 60.3598 18.0357 59.3078V50.2008C18.0519 49.1513 18.904 48.3055 19.9574 48.293H53.5787L53.5914 48.2933C54.2351 48.3015 54.7636 47.7885 54.772 47.1471V34.4266V34.4109C54.777 33.386 55.615 32.5595 56.6435 32.5645H67.3518C67.8897 32.5618 68.4028 32.7889 68.7615 33.1883L81.131 47.0757ZM74.6885 48.2922C75.1411 48.2982 75.5566 48.0429 75.7541 47.6371C75.9497 47.2344 75.8913 46.7551 75.6049 46.4107L67.3995 36.355C67.1726 36.0863 66.8353 35.9354 66.483 35.9446H59.2987C59.2768 35.944 59.2549 35.944 59.2329 35.9446C58.6258 35.962 58.148 36.4664 58.1654 37.0713V47.1464C58.1648 47.164 58.1646 47.1815 58.1649 47.199C58.1751 47.8127 58.6826 48.3022 59.2987 48.2922H74.6885Z" fill="white"/>
<path d="M65.7498 38.1372H60.2357V46.0995H72.179L65.7498 38.1372Z" fill="white"/>
</svg>
