<svg width="10" height="9" viewBox="0 0 10 9" fill="none" xmlns="http://www.w3.org/2000/svg">
<path d="M9.90033 1.74931C9.5575 1.90133 9.18872 2.00415 8.80197 2.05007C9.19685 1.81348 9.49989 1.43914 9.64292 0.992354C9.27343 1.21154 8.86401 1.37055 8.42863 1.45625C8.07982 1.08476 7.58283 0.8526 7.03251 0.8526C5.97666 0.8526 5.12031 1.70895 5.12031 2.76481C5.12031 2.91469 5.13728 3.06057 5.17008 3.20061C3.58087 3.1209 2.17178 2.35966 1.22858 1.20241C1.06401 1.48477 0.969608 1.81348 0.969608 2.16386C0.969608 2.82713 1.30744 3.41267 1.82025 3.75549C1.50695 3.74565 1.2119 3.65966 0.954206 3.51606C0.954063 3.52419 0.954063 3.53232 0.954063 3.5403C0.954063 4.46681 1.61348 5.2396 2.48808 5.41515C2.32779 5.45907 2.15852 5.48231 1.98439 5.48231C1.8609 5.48231 1.74125 5.47048 1.6246 5.44823C1.86788 6.20775 2.57393 6.76064 3.41089 6.77618C2.75632 7.28914 1.93191 7.59474 1.03578 7.59474C0.881762 7.59474 0.729173 7.58576 0.579865 7.56793C1.42566 8.11069 2.43104 8.42713 3.51085 8.42713C7.02809 8.42713 8.95157 5.5134 8.95157 2.98628C8.95157 2.90342 8.94971 2.82085 8.94601 2.739C9.31992 2.46947 9.64406 2.13278 9.90033 1.74931Z" fill="white"/>
</svg>
