<svg width="78" height="40" viewBox="0 0 78 40" fill="none" xmlns="http://www.w3.org/2000/svg">
<path fill-rule="evenodd" clip-rule="evenodd" d="M15.509 35.0213H18.7254C19.4017 37.6176 21.7313 39.5498 24.5269 39.5498C27.3224 39.5498 29.652 37.6176 30.3284 35.0213H57.5923H59.3057C59.9821 37.6176 62.3117 39.5498 65.1072 39.5498C67.9028 39.5498 70.2324 37.6176 70.9087 35.0213H75.6281C76.4547 35.0213 77.131 34.342 77.131 33.5118V21.4357C77.131 21.0281 76.9657 20.6507 76.6952 20.3639L70.6833 14.3259C70.3977 14.0391 70.022 13.8881 69.6162 13.8881H59.0953V6.34057C59.0953 5.51033 58.419 4.83105 57.5923 4.83105H15.509C14.6824 4.83105 14.006 5.51033 14.006 6.34057V33.5118C14.006 34.342 14.6824 35.0213 15.509 35.0213ZM65.1072 36.5311C63.4539 36.5311 62.1013 35.1726 62.1013 33.5121C62.1013 31.8516 63.4539 30.4931 65.1072 30.4931C66.7605 30.4931 68.1132 31.8516 68.1132 33.5121C68.1132 35.1726 66.7605 36.5311 65.1072 36.5311ZM68.9999 16.9081H65.1072V22.9462H74.125V22.0556L68.9999 16.9081ZM59.0953 16.9081H62.1013V24.4557C62.1013 25.2859 62.7776 25.9652 63.6043 25.9652H74.1251V32.0033H70.9087C70.2324 29.4069 67.9028 27.4747 65.1072 27.4747C62.3117 27.4747 59.9821 29.4069 59.3057 32.0033H59.0953V16.9081ZM21.521 33.5121C21.521 35.1726 22.8736 36.5311 24.5269 36.5311C26.1802 36.5311 27.5329 35.1726 27.5329 33.5121C27.5329 31.8516 26.1802 30.4931 24.5269 30.4931C22.8736 30.4931 21.521 31.8516 21.521 33.5121ZM17.012 7.85037H56.0894V15.3979V24.455H17.012V7.85037ZM24.5269 27.4743H17.012V32.0028H18.7254C19.4017 29.4065 21.7313 27.4743 24.5269 27.4743ZM24.5269 27.4743C27.3224 27.4743 29.652 29.4065 30.3284 32.0028H56.0894V27.4743H24.5269Z" fill="white"/>
<rect x="0.900024" y="0.983398" width="58.9167" height="33.6667" fill="white"/>
</svg>
