<svg width="10" height="8" viewBox="0 0 10 8" fill="none" xmlns="http://www.w3.org/2000/svg">
<path d="M9.04997 2.64993V3.54995H9.94993V4.44996H9.04997V5.34997H8.14996V4.44996H7.24994V3.54995H8.14996V2.64993H9.04997Z" fill="white"/>
<path d="M0.949939 6.24993C-0.250061 5.04993 -0.25006 2.94991 0.999919 1.74997C1.89993 0.849953 3.19989 0.64998 4.34991 1.09996L4.79989 1.34997L5.29991 1.69999L4.49991 2.49999L4.19992 2.30001C3.49993 1.85004 2.49991 1.94999 1.84995 2.6C1.09993 3.35002 1.04995 4.70002 1.84995 5.50002C2.59997 6.30001 3.94997 6.30001 4.64995 5.50002C4.84993 5.30004 5.04995 5 5.09993 4.70002V4.6H3.29996V3.60003H6.14994L6.19992 3.85003V4.55002C6.14994 5.20003 5.89993 5.85004 5.4499 6.30001C4.24995 7.44993 2.14994 7.44993 0.949939 6.24993Z" fill="white"/>
</svg>
